<svg xmlns="http://www.w3.org/2000/svg" xmlns:xlink="http://www.w3.org/1999/xlink" version="1.1" width="295.722pt" height="188.498pt" viewBox="0 0 295.722 188.498">
<text fill="#231f20" xml:space="preserve" transform="matrix(1 0 -0 1 0 188.498)" font-size="8.96638" font-family="CMMI9" font-style="italic"><tspan y="-125.076" x="258.944">s</tspan></text>
<text fill="#231f20" xml:space="preserve" transform="matrix(1 0 -0 1 0 188.498)" font-size="8.96638" font-family="CMR9"><tspan y="-125.076" x="265.796 275.51554">=4</tspan></text>
<text fill="#231f20" xml:space="preserve" transform="matrix(1 0 -0 1 0 188.498)" font-size="8.96638" font-family="CMMI9" font-style="italic"><tspan y="-125.076" x="280.131">m</tspan></text>
<text fill="#231f20" xml:space="preserve" transform="matrix(1 0 -0 1 0 188.498)" font-size="5.97758" font-family="CMR6"><tspan y="-128.885" x="288.25">2</tspan></text>
<text fill="#231f20" xml:space="preserve" transform="matrix(1 0 -0 1 0 188.498)" font-size="8.96638" font-family="CMMI9" font-style="italic"><tspan y="-167.588" x="76.356">u</tspan></text>
<text fill="#231f20" xml:space="preserve" transform="matrix(1 0 -0 1 0 188.498)" font-size="8.96638" font-family="CMR9"><tspan y="-167.588" x="84.219 93.93856">=0</tspan></text>
<text fill="#231f20" xml:space="preserve" transform="matrix(1 0 -0 1 0 188.498)" font-size="8.96638" font-family="CMMI9" font-style="italic"><tspan y="-167.588" x="169.326">t</tspan></text>
<text fill="#231f20" xml:space="preserve" transform="matrix(1 0 -0 1 0 188.498)" font-size="8.96638" font-family="CMR9"><tspan y="-167.588" x="175.214 184.93357">=0</tspan></text>
<text fill="#231f20" xml:space="preserve" transform="matrix(1 0 -0 1 0 188.498)" font-size="8.96638" font-family="CMMI9" font-style="italic"><tspan y="-177.517" x="231.08">t</tspan></text>
<text fill="#231f20" xml:space="preserve" transform="matrix(1 0 -0 1 0 188.498)" font-size="8.96638" font-family="CMR9"><tspan y="-177.517" x="236.967 246.68656">=4</tspan></text>
<text fill="#231f20" xml:space="preserve" transform="matrix(1 0 -0 1 0 188.498)" font-size="8.96638" font-family="CMMI9" font-style="italic"><tspan y="-177.517" x="251.302">m</tspan></text>
<text fill="#231f20" xml:space="preserve" transform="matrix(1 0 -0 1 0 188.498)" font-size="5.97758" font-family="CMR6"><tspan y="-181.326" x="259.421">2</tspan></text>
<text fill="#231f20" xml:space="preserve" transform="matrix(1 0 -0 1 -.0000009536743 188.498)" font-size="8.96638" font-family="CMMI9" font-style="italic"><tspan y="-177.517" x="3.321">u</tspan></text>
<text fill="#231f20" xml:space="preserve" transform="matrix(1 0 -0 1 -.0000009536743 188.498)" font-size="8.96638" font-family="CMR9"><tspan y="-177.517" x="11.183 20.902556">=4</tspan></text>
<text fill="#231f20" xml:space="preserve" transform="matrix(1 0 -0 1 -.0000009536743 188.498)" font-size="8.96638" font-family="CMMI9" font-style="italic"><tspan y="-177.517" x="25.518">m</tspan></text>
<text fill="#231f20" xml:space="preserve" transform="matrix(1 0 -0 1 -.0000009536743 188.498)" font-size="5.97758" font-family="CMR6"><tspan y="-181.326" x="33.637">2</tspan></text>
<path transform="matrix(1,0,0,-1,133.94,60.54)" d="M0 0-28.3468 42.5202H28.3468" fill="#7b9fd3"/>
<path transform="matrix(1,0,0,-1,133.94,60.54)" d="M-28.3468-42.5202-56.69362-85.04042-85.04042-42.5202" fill="#7b9fd3"/>
<text fill="#231f20" xml:space="preserve" transform="matrix(1 0 -0 1 0 188.498)" font-size="8.96638" font-family="CMMI9" font-style="italic"><tspan y="-82.556" x="243.819">s</tspan></text>
<text fill="#231f20" xml:space="preserve" transform="matrix(1 0 -0 1 0 188.498)" font-size="8.96638" font-family="CMR9"><tspan y="-82.556" x="250.671 260.39057">=0</tspan></text>
<path transform="matrix(1,0,0,-1,133.94,60.54)" d="M28.3468-42.5202 56.69362-85.04042 85.04042-42.5202" fill="#7b9fd3"/>
<path transform="matrix(1,0,0,-1,133.94,60.54)" stroke-width=".79701" stroke-linecap="butt" stroke-dasharray="2.98883,2.98883" stroke-miterlimit="10" stroke-linejoin="miter" fill="none" stroke="#006eb8" d="M-36.20839 54.31268 64.55519-96.8329"/>
<path transform="matrix(1,0,0,-1,133.94,60.54)" stroke-width=".79701" stroke-linecap="butt" stroke-dasharray="2.98883,2.98883" stroke-miterlimit="10" stroke-linejoin="miter" fill="none" stroke="#006eb8" d="M36.20839 54.31268-64.55519-96.8329"/>
<path transform="matrix(1,0,0,-1,133.94,60.54)" stroke-width="1.19553" stroke-linecap="butt" stroke-miterlimit="10" stroke-linejoin="miter" fill="none" stroke="#006eb8" d="M28.3468 42.5202-56.69362-85.04042"/>
<path transform="matrix(1,0,0,-1,133.94,60.54)" stroke-width=".79701" stroke-linecap="butt" stroke-dasharray="2.98883,2.98883" stroke-miterlimit="10" stroke-linejoin="miter" fill="none" stroke="#006eb8" d="M-99.21382-42.5202H99.21382"/>
<path transform="matrix(1,0,0,-1,133.94,60.54)" stroke-width="1.19553" stroke-linecap="butt" stroke-miterlimit="10" stroke-linejoin="miter" fill="none" stroke="#006eb8" d="M-85.04042-42.5202H85.04042"/>
<path transform="matrix(1,0,0,-1,133.94,60.54)" stroke-width="1.19553" stroke-linecap="butt" stroke-miterlimit="10" stroke-linejoin="miter" fill="none" stroke="#006eb8" d="M-28.3468 42.5202 56.69362-85.04042"/>
<path transform="matrix(1,0,0,-1,133.94,60.54)" stroke-width=".79701" stroke-linecap="butt" stroke-dasharray="2.98883,2.98883" stroke-miterlimit="10" stroke-linejoin="miter" fill="none" stroke="#006eb8" d="M-3.5198 0H-113.38724"/>
<path transform="matrix(1,0,0,-1,133.94,60.54)" stroke-width=".79701" stroke-linecap="butt" stroke-dasharray="2.98883,2.98883" stroke-miterlimit="10" stroke-linejoin="miter" fill="none" stroke="#006eb8" d="M3.5198 0H113.38724"/>
<path transform="matrix(1,0,0,-1,133.94,60.54)" stroke-width=".79701" stroke-linecap="butt" stroke-dasharray="2.98883,2.98883" stroke-miterlimit="10" stroke-linejoin="miter" fill="none" stroke="#006eb8" d="M-30.69095-39.00038-85.04042 42.52022"/>
<path transform="matrix(1,0,0,-1,133.94,60.54)" stroke-width=".79701" stroke-linecap="butt" stroke-dasharray="2.98883,2.98883" stroke-miterlimit="10" stroke-linejoin="miter" fill="none" stroke="#006eb8" d="M-26.00266-46.04002 28.3468-127.56062"/>
<path transform="matrix(1,0,0,-1,133.94,60.54)" stroke-width=".79701" stroke-linecap="butt" stroke-dasharray="2.98883,2.98883" stroke-miterlimit="10" stroke-linejoin="miter" fill="none" stroke="#006eb8" d="M30.69095-39.00038 85.04042 42.52022"/>
<path transform="matrix(1,0,0,-1,133.94,60.54)" stroke-width=".79701" stroke-linecap="butt" stroke-dasharray="2.98883,2.98883" stroke-miterlimit="10" stroke-linejoin="miter" fill="none" stroke="#006eb8" d="M26.00266-46.04002-28.3468-127.56062"/>
<text fill="#231f20" xml:space="preserve" transform="matrix(1 0 -0 1 0 188.498)" font-size="9.96264" font-family="CMMI10" font-style="italic"><tspan y="-154.159" x="131.605">s</tspan></text>
<text fill="#231f20" xml:space="preserve" transform="matrix(1 0 -0 1 0 188.49802)" font-size="9.96264" font-family="CMMI10" font-style="italic"><tspan y="-69.12" x="74.396">u</tspan></text>
<text fill="#231f20" xml:space="preserve" transform="matrix(1 0 -0 1 0 188.49799)" font-size="9.96264" font-family="CMMI10" font-style="italic"><tspan y="-68.201" x="188.834">t</tspan></text>
</svg>
