<svg xmlns="http://www.w3.org/2000/svg" xmlns:xlink="http://www.w3.org/1999/xlink" version="1.1" width="113.254pt" height="136.688pt" viewBox="0 0 113.254 136.688">
<path transform="matrix(1,0,0,-1,-40.704,42.439004)" stroke-width=".3985" stroke-linecap="butt" stroke-miterlimit="10" stroke-linejoin="miter" fill="none" stroke="#d6def1" d="M66.65532 9.9617H46.7319V-9.9617H66.65532ZM46.7319-9.9617"/>
<path transform="matrix(1,0,0,-1,-40.704,42.439004)" stroke-width=".3985" stroke-linecap="butt" stroke-miterlimit="10" stroke-linejoin="miter" fill="none" stroke="#000000" d="M62.36288 0H73.30336"/>
<path transform="matrix(1,0,0,-1,32.79861,42.439004)" stroke-width=".3985" stroke-linecap="round" stroke-linejoin="round" fill="none" stroke="#000000" d="M-2.07224 2.39104C-1.69365 .95639-.84999 .27895 0 0-.84999-.27895-1.69365-.95639-2.07224-2.39104"/>
<path transform="matrix(1,0,0,-1,-40.704,42.439004)" stroke-width=".3985" stroke-linecap="butt" stroke-miterlimit="10" stroke-linejoin="miter" fill="none" stroke="#000000" d="M125.12428 0H136.06476"/>
<path transform="matrix(-1,-0,0,1,84.22104,42.439004)" stroke-width=".3985" stroke-linecap="round" stroke-linejoin="round" fill="none" stroke="#000000" d="M-2.07224 2.39104C-1.69365 .95639-.84999 .27895 0 0-.84999-.27895-1.69365-.95639-2.07224-2.39104"/>
<path transform="matrix(1,0,0,-1,-40.704,42.439004)" d="M62.79979 0C62.79979 3.37239 60.06601 6.10617 56.69362 6.10617 53.32121 6.10617 50.58743 3.37239 50.58743 0 50.58743-3.37239 53.32121-6.10617 56.69362-6.10617 60.06601-6.10617 62.79979-3.37239 62.79979 0ZM56.69362 0" fill="#7b9fd3"/>
<text fill="#ffffff" xml:space="preserve" transform="matrix(.9 0 -0 .9 1.4759035 127.3183)" font-size="4.98132" font-family="LMSans8"><tspan y="-93.697" x="14.759">p</tspan></text>
<path transform="matrix(1,0,0,-1,-40.704,42.439004)" d="M147.84023 0C147.84023 3.37239 145.10643 6.10617 141.73404 6.10617 138.36165 6.10617 135.62787 3.37239 135.62787 0 135.62787-3.37239 138.36165-6.10617 141.73404-6.10617 145.10643-6.10617 147.84023-3.37239 147.84023 0ZM141.73404 0" fill="#7b9fd3"/>
<text fill="#ffffff" xml:space="preserve" transform="matrix(.9 0 -0 .9 9.979912 127.3183)" font-size="4.98132" font-family="LMSans8"><tspan y="-93.697" x="99.799">p</tspan></text>
<path transform="matrix(1,0,0,-1,-40.704,42.439004)" d="M99.21382 14.83331 98.35109 4.6158 95.15186 10.48573 96.74179 3.99248 87.04677 13.3463 95.4664 2.82993 87.76355 5.70149 94.69725 1.28499 85.93103 1.2307 94.5381-.43321 87.59763-3.30505 95.01038-2.09303 85.58653-10.29094 96.05032-3.47018 94.1259-8.2174 97.51753-4.3787 96.16014-16.33664 99.21382-4.6959 101.47943-12.12158 100.9101-4.3787 104.34245-8.2829 102.37732-3.47018 109.94054-8.10051 103.41725-2.09303 115.4727-4.62575 103.88954-.43321 109.13512 .91924 103.7304 1.28499 112.89722 6.81323 102.96124 2.82986 108.21927 9.87805 101.68584 3.99248 105.11119 15.2231 100.07661 4.6158Z" fill="#f7921d"/>
<path transform="matrix(1,0,0,-1,-40.704,42.439004)" d="M99.21382 10.38327 98.60992 3.23103 96.37045 7.33998 97.48343 2.79471 90.69693 9.34235 96.59064 1.98093 91.19867 3.99101 96.05225 .89948 89.91591 .86148 95.94083-.30324 91.08252-2.31352 96.27142-1.4651 89.67477-7.20361 96.99939-2.42911 95.6523-5.75215 98.02644-3.06506 97.07625-11.4356 99.21382-3.28711 100.79973-8.48505 100.4012-3.06506 102.80385-5.798 101.42825-2.42911 106.72247-5.67032 102.1562-1.4651 110.59497-3.23799 102.4868-.30324 106.15869 .64346 102.3754 .89948 108.79214 4.76923 101.83699 1.98088 105.51761 6.9146 100.94421 2.79471 103.34195 10.65611 99.81776 3.23103Z" fill="#fcc07f"/>
<path transform="matrix(1,0,0,-1,-40.704,42.439004)" stroke-width=".3985" stroke-linecap="butt" stroke-miterlimit="10" stroke-linejoin="miter" fill="none" stroke="#8a8c8e" d="M82.20555-34.01608 79.04108-40.34477"/>
<path transform="matrix(-.4472,.89438,.89438,.4472,38.247983,82.96196)" stroke-width=".3985" stroke-linecap="round" stroke-linejoin="round" fill="none" stroke="#8a8c8e" d="M-2.07224 2.39104C-1.69365 .95639-.84999 .27895 0 0-.84999-.27895-1.69365-.95639-2.07224-2.39104"/>
<path transform="matrix(1,0,0,-1,-40.704,42.439004)" d="M84.78854-34.01608C84.78854-32.58952 83.63211-31.43309 82.20555-31.43309 80.779-31.43309 79.62257-32.58952 79.62257-34.01608 79.62257-35.44263 80.779-36.59906 82.20555-36.59906 83.63211-36.59906 84.78854-35.44263 84.78854-34.01608ZM82.20555-34.01608" fill="#e6b7d5"/>
<path transform="matrix(1,0,0,-1,-40.704,42.439004)" stroke-width=".3985" stroke-linecap="butt" stroke-miterlimit="10" stroke-linejoin="miter" fill="none" stroke="#8a8c8e" d="M85.04042 22.67752 80.36465 30.15854"/>
<path transform="matrix(-.53,-.84798,-.84798,.53,39.555067,12.111504)" stroke-width=".3985" stroke-linecap="round" stroke-linejoin="round" fill="none" stroke="#8a8c8e" d="M-2.07224 2.39104C-1.69365 .95639-.84999 .27895 0 0-.84999-.27895-1.69365-.95639-2.07224-2.39104"/>
<path transform="matrix(1,0,0,-1,-40.704,42.439004)" d="M89.26707 22.67752C89.26707 25.01186 87.37476 26.90416 85.04042 26.90416 82.70609 26.90416 80.81377 25.01186 80.81377 22.67752 80.81377 20.34317 82.70609 18.45087 85.04042 18.45087 87.37476 18.45087 89.26707 20.34317 89.26707 22.67752ZM85.04042 22.67752" fill="#6bc8c3"/>
<path transform="matrix(1,0,0,-1,-40.704,42.439004)" stroke-width=".3985" stroke-linecap="butt" stroke-miterlimit="10" stroke-linejoin="miter" fill="none" stroke="#8a8c8e" d="M113.38724 28.3468 116.83517 35.2425"/>
<path transform="matrix(.4472,-.89438,-.89438,-.4472,76.220279,7.018303)" stroke-width=".3985" stroke-linecap="round" stroke-linejoin="round" fill="none" stroke="#8a8c8e" d="M-2.07224 2.39104C-1.69365 .95639-.84999 .27895 0 0-.84999-.27895-1.69365-.95639-2.07224-2.39104"/>
<path transform="matrix(1,0,0,-1,-40.704,42.439004)" d="M116.20505 28.3468C116.20505 29.90305 114.94347 31.16461 113.38724 31.16461 111.831 31.16461 110.56943 29.90305 110.56943 28.3468 110.56943 26.79056 111.831 25.52899 113.38724 25.52899 114.94347 25.52899 116.20505 26.79056 116.20505 28.3468ZM113.38724 28.3468" fill="#9586bf"/>
<path transform="matrix(1,0,0,-1,-40.704,42.439004)" stroke-width=".3985" stroke-linecap="butt" stroke-miterlimit="10" stroke-linejoin="miter" fill="none" stroke="#8a8c8e" d="M107.71794-25.79568 110.25981-33.5054"/>
<path transform="matrix(.31311,.94968,.94968,-.31311,69.618167,76.133609)" stroke-width=".3985" stroke-linecap="round" stroke-linejoin="round" fill="none" stroke="#8a8c8e" d="M-2.07224 2.39104C-1.69365 .95639-.84999 .27895 0 0-.84999-.27895-1.69365-.95639-2.07224-2.39104"/>
<path transform="matrix(1,0,0,-1,-40.704,42.439004)" d="M111.24017-25.79568C111.24017-23.85039 109.66324-22.27344 107.71794-22.27344 105.77266-22.27344 104.19571-23.85039 104.19571-25.79568 104.19571-27.74097 105.77266-29.31792 107.71794-29.31792 109.66324-29.31792 111.24017-27.74097 111.24017-25.79568ZM107.71794-25.79568" fill="#d58468"/>
<path transform="matrix(1,0,0,-1,-40.704,42.439004)" stroke-width=".3985" stroke-linecap="butt" stroke-miterlimit="10" stroke-linejoin="miter" fill="none" stroke="#d6def1" d="M41.10278-93.54454H72.28444V-62.36288H41.10278Z"/>
<path transform="matrix(1,0,0,-1,-40.704,42.439004)" stroke-width=".3985" stroke-linecap="butt" stroke-dasharray="2.98883,1.99255" stroke-miterlimit="10" stroke-linejoin="miter" fill="none" stroke="#d6def1" d="M67.25307-10.56041 72.48369-62.16219"/>
<path transform="matrix(1,0,0,-1,-40.704,42.439004)" stroke-width=".3985" stroke-linecap="butt" stroke-dasharray="2.98883,1.99255" stroke-miterlimit="10" stroke-linejoin="miter" fill="none" stroke="#d6def1" d="M46.13416-10.56041 40.90353-62.16219"/>
<path transform="matrix(1,0,0,-1,-40.704,42.439004)" d="M69.44958-77.95372C69.44958-70.90869 63.73863-65.19774 56.69362-65.19774 49.64859-65.19774 43.93764-70.90869 43.93764-77.95372 43.93764-84.99873 49.64859-90.7097 56.69362-90.7097 63.73863-90.7097 69.44958-84.99873 69.44958-77.95372ZM56.69362-77.95372" fill="#7b9fd3"/>
<path transform="matrix(1,0,0,-1,-40.704,42.439004)" stroke-width=".09962" stroke-linecap="butt" stroke-miterlimit="10" stroke-linejoin="miter" fill="none" stroke="#ffffff" d="M62.64664-73.9852C62.58023-74.29984 62.3877-74.55212 62.16397-74.55212 61.94025-74.55212 61.7477-74.29984 61.68129-73.9852 61.61488-73.67056 61.67464-73.41826 61.76555-73.41826 61.85648-73.41826 61.9162-73.67056 61.84981-73.9852 61.7832-74.29984 61.59067-74.55212 61.36694-74.55212 61.14322-74.55212 60.95067-74.29984 60.88426-73.9852 60.81786-73.67056 60.87761-73.41826 60.96854-73.41826 61.05945-73.41826 61.11919-73.67056 61.05278-73.9852 60.98618-74.29984 60.79364-74.55212 60.56992-74.55212 60.34619-74.55212 60.15364-74.29984 60.08723-73.9852 60.02084-73.67056 60.08058-73.41826 60.17151-73.41826 60.26244-73.41826 60.32216-73.67056 60.25575-73.9852 60.18915-74.29984 59.99663-74.55212 59.77289-74.55212 59.54916-74.55212 59.35661-74.29984 59.29022-73.9852 59.22382-73.67056 59.28355-73.41826 59.37448-73.41826 59.46541-73.41826 59.52513-73.67056 59.45872-73.9852 59.39214-74.29984 59.1996-74.55212 58.97588-74.55212 58.75214-74.55212 58.5596-74.29984 58.4932-73.9852 58.42679-73.67056 58.48653-73.41826 58.57745-73.41826 58.66838-73.41826 58.7281-73.67056 58.66171-73.9852 58.59511-74.29984 58.40257-74.55212 58.17885-74.55212 57.95512-74.55212 57.76257-74.29984 57.69617-73.9852 57.62976-73.67056 57.68951-73.41826 57.78043-73.41826 57.87135-73.41826 57.93108-73.67056 57.86469-73.9852 57.79808-74.29984 57.60555-74.55212 57.38182-74.55212 57.1581-74.55212 56.96555-74.29984 56.89914-73.9852 56.83273-73.67056 56.89249-73.41826 56.98341-73.41826 57.07433-73.41826 57.13406-73.67056 57.06766-73.9852 57.00105-74.29984 56.80852-74.55212 56.5848-74.55212 56.36107-74.55212 56.16852-74.29984 56.10211-73.9852 56.03572-73.67056 56.09546-73.41826 56.18639-73.41826 56.27731-73.41826 56.33704-73.67056 56.27063-73.9852 56.20403-74.29984 56.0115-74.55212 55.78777-74.55212 55.56404-74.55212 55.37149-74.29984 55.3051-73.9852 55.2387-73.67056 55.29843-73.41826 55.38936-73.41826 55.48029-73.41826 55.54001-73.67056 55.4736-73.9852 55.40701-74.29984 55.21448-74.55212 54.99075-74.55212 54.76701-74.55212 54.57448-74.29984 54.50807-73.9852 54.44167-73.67056 54.5014-73.41826 54.59233-73.41826 54.68326-73.41826 54.74298-73.67056 54.67659-73.9852 54.60999-74.29984 54.41745-74.55212 54.19373-74.55212 53.97-74.55212 53.77745-74.29984 53.71104-73.9852 53.64464-73.67056 53.70439-73.41826 53.7953-73.41826 53.88623-73.41826 53.94595-73.67056 53.87956-73.9852 53.81296-74.29984 53.62042-74.55212 53.3967-74.55212 53.17297-74.55212 52.98042-74.29984 52.91402-73.9852 52.84761-73.67056 52.90736-73.41826 52.99829-73.41826 53.0892-73.41826 53.14894-73.67056 53.08253-73.9852 53.01593-74.29984 52.8234-74.55212 52.59967-74.55212 52.37595-74.55212 52.1834-74.29984 52.11699-73.9852 52.0506-73.67056 52.11034-73.41826 52.20126-73.41826 52.29219-73.41826 52.35191-73.67056 52.2855-73.9852 52.2189-74.29984 52.02638-74.55212 51.80264-74.55212 51.57892-74.55212 51.38637-74.29984 51.31998-73.9852H50.7406"/>
<path transform="matrix(1,0,0,-1,-40.704,42.439004)" stroke-width=".09962" stroke-linecap="butt" stroke-miterlimit="10" stroke-linejoin="miter" fill="none" stroke="#ffffff" d="M62.64664-73.9852C62.89217-74.1928 63.02301-74.48192 62.91695-74.6789 62.81088-74.87589 62.49748-74.92578 62.189-74.8351 61.8805-74.74443 61.68672-74.5722 61.72981-74.49216 61.77292-74.41211 62.02335-74.47914 62.26888-74.68674 62.51433-74.89452 62.64517-75.18364 62.53911-75.38062 62.43304-75.5776 62.11964-75.6275 61.81114-75.53683 61.50266-75.44615 61.30887-75.27393 61.35197-75.1939 61.39507-75.11383 61.64551-75.18086 61.89104-75.38846 62.13649-75.59624 62.26732-75.88536 62.16125-76.08234 62.05519-76.27933 61.74179-76.32924 61.4333-76.23856 61.1248-76.14787 60.93103-75.97565 60.97412-75.89561 61.01723-75.81555 61.26765-75.88258 61.51318-76.09018 61.75864-76.29796 61.88948-76.58708 61.78342-76.78406 61.67735-76.98105 61.36395-77.03096 61.05545-76.94028 60.74696-76.8496 60.55318-76.67737 60.59628-76.59734 60.63937-76.51729 60.88982-76.5843 61.13535-76.7919 61.38078-76.99968 61.51163-77.28882 61.40556-77.48578 61.2995-77.68277 60.98608-77.73268 60.6776-77.642 60.3691-77.55132 60.17532-77.37909 60.21841-77.29906 60.26152-77.21901 60.51195-77.28603 60.75748-77.49362 61.00293-77.70142 61.13377-77.99054 61.02771-78.1875 60.92165-78.38449 60.60825-78.4344 60.29974-78.34372 59.99126-78.25304 59.79747-78.08083 59.84058-78.00078 59.88367-77.92073 60.13411-77.98775 60.37964-78.19536 60.62509-78.40315 60.75594-78.69228 60.64987-78.88925 60.54381-79.08623 60.2304-79.13614 59.9219-79.04546 59.6134-78.95479 59.41963-78.78256 59.46272-78.70251 59.50583-78.62247 59.75626-78.6895 60.00179-78.8971 60.24722-79.10487 60.37807-79.394 60.272-79.59097 60.16594-79.78795 59.85254-79.83786 59.54404-79.74718 59.23555-79.65651 59.04176-79.48428 59.08487-79.40424 59.12796-79.32419 59.3784-79.39122 59.62393-79.59882 59.86938-79.8066 60.00023-80.09572 59.89417-80.2927 59.7881-80.48969 59.47469-80.53958 59.1662-80.44891 58.85771-80.35823 58.66393-80.186 58.70702-80.10597 58.75012-80.02591 59.00056-80.09294 59.24608-80.30054 59.49153-80.50832 59.62238-80.79744 59.51631-80.99442 59.41025-81.1914 59.09685-81.24132 58.78836-81.15063 58.47986-81.05995 58.28609-80.88773 58.32918-80.8077 58.37227-80.72763 58.62271-80.79466 58.86824-81.00226 59.1137-81.21004 59.24454-81.49916 59.13847-81.69614 59.03241-81.89313 58.71901-81.94304 58.4105-81.85236 58.10202-81.76167 57.90823-81.58945 57.95134-81.50941 57.99443-81.42935 58.24487-81.49638 58.4904-81.70398 58.73582-81.91176 58.86667-82.2009 58.7606-82.39786 58.65454-82.59485 58.34114-82.64476 58.03265-82.55408 57.72415-82.4634 57.53038-82.29117 57.57347-82.21114 57.61658-82.13109 57.867-82.1981 58.11253-82.4057 58.35799-82.6135 58.48883-82.90263 58.38277-83.0996 58.2767-83.29659 57.9633-83.3465 57.6548-83.25581 57.34631-83.16513 57.15253-82.99292 57.19563-82.91287 57.23872-82.83282 57.48917-82.89984 57.7347-83.10745 57.98013-83.31523 58.11098-83.60435 58.00491-83.80133 57.89885-83.9983 57.58545-84.04822 57.27696-83.95753 56.96846-83.86687 56.77469-83.69464 56.81778-83.6146 56.86089-83.53455 57.11131-83.60156 57.35684-83.80917 57.60228-84.01695 57.73312-84.30608 57.62706-84.50305 57.521-84.70003 57.2076-84.74994 56.8991-84.65926L56.69365-85.04037"/>
<path transform="matrix(1,0,0,-1,-40.704,42.439004)" stroke-width=".09962" stroke-linecap="butt" stroke-miterlimit="10" stroke-linejoin="miter" fill="none" stroke="#ffffff" d="M50.7406-73.9852C51.04907-73.8945 51.36246-73.94441 51.46852-74.14137 51.57458-74.33836 51.44376-74.62749 51.19823-74.8351 50.95271-75.04272 50.70226-75.10971 50.65915-75.02968 50.61606-74.94962 50.80986-74.77744 51.11835-74.68674 51.42691-74.59622 51.74031-74.64613 51.84637-74.84311 51.95244-75.04008 51.82161-75.32921 51.57608-75.53683 51.33055-75.74445 51.0801-75.81143 51.037-75.7314 50.9939-75.65135 51.1877-75.47916 51.49619-75.38846 51.80476-75.29794 52.11815-75.34785 52.22421-75.54483 52.33028-75.7418 52.19945-76.03094 51.95392-76.23856 51.70839-76.44617 51.45795-76.51317 51.41484-76.43312 51.37175-76.35307 51.56554-76.18088 51.87404-76.09018 52.1826-75.99966 52.496-76.04958 52.60207-76.24655 52.70813-76.44354 52.5773-76.73267 52.33177-76.94028 52.08624-77.14789 51.83578-77.21489 51.7927-77.13484 51.74959-77.0548 51.94339-76.8826 52.25188-76.7919 52.56047-76.70139 52.87386-76.7513 52.97992-76.94827 53.08598-77.14526 52.95515-77.43439 52.70963-77.642 52.4641-77.84961 52.21365-77.91661 52.17055-77.83656 52.12746-77.75652 52.32124-77.58432 52.62975-77.49362 52.93831-77.40312 53.25171-77.45302 53.35777-77.65 53.46384-77.84698 53.33301-78.13611 53.08748-78.34372 52.84195-78.55133 52.59149-78.61833 52.5484-78.5383 52.5053-78.45824 52.6991-78.28604 53.00758-78.19536 53.31616-78.10486 53.62955-78.15475 53.73561-78.35173 53.84167-78.54872 53.71085-78.83784 53.46532-79.04546 53.21979-79.25307 52.96935-79.32007 52.92624-79.24004 52.88315-79.15997 53.07693-78.98778 53.38544-78.8971 53.69402-78.80658 54.0074-78.85649 54.11346-79.05345 54.21953-79.25044 54.08871-79.53957 53.84319-79.74718 53.59766-79.9548 53.3472-80.02179 53.30411-79.94176 53.261-79.8617 53.4548-79.68951 53.76329-79.59882 54.07187-79.5083 54.38525-79.55821 54.49132-79.75519 54.59738-79.95216 54.46655-80.24129 54.22102-80.44891 53.9755-80.65652 53.72505-80.72351 53.68195-80.64348 53.63885-80.56343 53.83264-80.39124 54.14114-80.30054 54.4497-80.21002 54.76309-80.25993 54.86916-80.45691 54.97522-80.65388 54.84439-80.94302 54.59888-81.15063 54.35335-81.35825 54.10289-81.42523 54.0598-81.3452 54.0167-81.26515 54.2105-81.09296 54.51898-81.00226 54.82756-80.91174 55.14095-80.96165 55.24701-81.15863 55.35307-81.35562 55.22224-81.64474 54.97672-81.85236 54.73119-82.05997 54.48074-82.12697 54.43764-82.04692 54.39455-81.96687 54.58833-81.79468 54.89684-81.70398 55.20541-81.61346 55.5188-81.66338 55.62486-81.86035 55.73093-82.05734 55.6001-82.34647 55.35458-82.55408 55.10905-82.76169 54.8586-82.82869 54.8155-82.74864 54.7724-82.6686 54.9662-82.4964 55.27469-82.4057 55.58325-82.31522 55.89665-82.36511 56.00272-82.56209 56.10878-82.75908 55.97795-83.0482 55.73242-83.25581 55.4869-83.46342 55.23643-83.53043 55.19334-83.4504 55.15025-83.37033 55.34404-83.19814 55.65254-83.10745 55.9611-83.01694 56.27449-83.06683 56.38055-83.26381 56.48662-83.4608 56.35579-83.74992 56.11026-83.95753 55.86475-84.16515 55.61429-84.23215 55.57118-84.15211 55.52809-84.07205 55.7219-83.89986 56.03038-83.80917 56.33896-83.71866 56.65236-83.76857 56.75842-83.96553 56.86449-84.16252 56.73366-84.45164 56.48813-84.65926L56.6936-85.04039"/>
<path transform="matrix(1,0,0,-1,-40.704,42.439004)" d="M67.4847-73.9852C67.4847-71.31319 65.31863-69.14714 62.64664-69.14714 59.97462-69.14714 57.80856-71.31319 57.80856-73.9852 57.80856-76.6572 59.97462-78.82326 62.64664-78.82326 65.31863-78.82326 67.4847-76.6572 67.4847-73.9852ZM62.64664-73.9852" fill="#b93c23"/>
<text fill="#ffffff" xml:space="preserve" transform="matrix(.75 0 -0 .75 5.22925 131.82776)" font-size="4.98132" font-family="LMSans8"><tspan y="-19.441" x="20.917">u</tspan></text>
<path transform="matrix(1,0,0,-1,-40.704,42.439004)" d="M55.57866-73.9852C55.57866-71.31319 53.4126-69.14714 50.7406-69.14714 48.06859-69.14714 45.90253-71.31319 45.90253-73.9852 45.90253-76.6572 48.06859-78.82326 50.7406-78.82326 53.4126-78.82326 55.57866-76.6572 55.57866-73.9852ZM50.7406-73.9852" fill="#373896"/>
<text fill="#ffffff" xml:space="preserve" transform="matrix(.75 0 -0 .75 2.2527519 131.82776)" font-size="4.98132" font-family="LMSans8"><tspan y="-19.441" x="9.011">u</tspan></text>
<path transform="matrix(1,0,0,-1,-40.704,42.439004)" d="M61.50725-85.0404C61.50725-82.38188 59.35213-80.22678 56.69362-80.22678 54.0351-80.22678 51.87997-82.38188 51.87997-85.0404 51.87997-87.69893 54.0351-89.85403 56.69362-89.85403 59.35213-89.85403 61.50725-87.69893 61.50725-85.0404ZM56.69362-85.0404" fill="#009d5c"/>
<text fill="#ffffff" xml:space="preserve" transform="matrix(.7 0 -0 .7 4.509901 134.2883)" font-size="4.98132" font-family="LMSans8"><tspan y="-7.999" x="15.033">d</tspan></text>
<path transform="matrix(1,0,0,-1,-40.704,42.439004)" stroke-width=".3985" stroke-linecap="butt" stroke-miterlimit="10" stroke-linejoin="miter" fill="none" stroke="#7b9fd3" d="M77.95372-77.95372H91.7286"/>
<path transform="matrix(1,0,0,-1,51.223859,120.39272)" stroke-width=".3985" stroke-linecap="round" stroke-linejoin="round" fill="none" stroke="#7b9fd3" d="M-2.07224 2.39104C-1.69365 .95639-.84999 .27895 0 0-.84999-.27895-1.69365-.95639-2.07224-2.39104"/>
<text fill="#006eb8" xml:space="preserve" transform="matrix(1 0 -0 1 0 136.688)" font-size="2.98879" font-family="LMSans8"><tspan y="-27.955" x="64.175">q</tspan></text>
<text fill="#008a73" xml:space="preserve" transform="matrix(1 0 -0 1 0 136.688)" font-size="2.98879" font-family="LMSans8"><tspan y="-3.902" x="64.175">q</tspan></text>
<text fill="#008a73" xml:space="preserve" transform="matrix(1 0 -0 1 .0000076293949 136.688)" font-size="2.98879" font-family="LMSans8"><tspan y="-27.955" x="107.895">q</tspan></text>
<text fill="#006eb8" xml:space="preserve" transform="matrix(1 0 -0 1 .0000076293949 136.688)" font-size="2.98879" font-family="LMSans8"><tspan y="-3.902" x="107.895">q</tspan></text>
<path transform="matrix(1,0,0,-1,-40.704,42.439004)" stroke-width=".3985" stroke-linecap="butt" stroke-miterlimit="10" stroke-linejoin="miter" fill="none" stroke="#006eb8" d="M101.36057-65.92705 113.38724-77.95372"/>
<path transform="matrix(.7071,.7071,.7071,-.7071,68.932758,116.642238)" stroke-width=".3985" stroke-linecap="round" stroke-linejoin="round" fill="none" stroke="#006eb8" d="M-3.08846 1.29515C-2.5242 .51805-1.26683 .15108 0 0-1.26683-.15108-2.5242-.51805-3.08846-1.29515"/>
<path transform="matrix(1,0,0,-1,-40.704,42.439004)" stroke-width=".3985" stroke-linecap="butt" stroke-miterlimit="10" stroke-linejoin="miter" fill="none" stroke="#008a73" d="M113.38724-77.95372 101.36057-89.98038"/>
<path transform="matrix(-.7071,.7071,.7071,.7071,64.40706,128.6689)" stroke-width=".3985" stroke-linecap="round" stroke-linejoin="round" fill="none" stroke="#008a73" d="M-3.08846 1.29515C-2.5242 .51805-1.26683 .15108 0 0-1.26683-.15108-2.5242-.51805-3.08846-1.29515"/>
<path transform="matrix(1,0,0,-1,-40.704,42.439004)" stroke-width=".3985" stroke-linecap="butt" stroke-miterlimit="10" stroke-linejoin="miter" fill="none" stroke="#008a73" d="M141.73404-77.95372 153.76071-65.92705"/>
<path transform="matrix(.7071,-.7071,-.7071,-.7071,109.30623,112.11655)" stroke-width=".3985" stroke-linecap="round" stroke-linejoin="round" fill="none" stroke="#008a73" d="M-3.08846 1.29515C-2.5242 .51805-1.26683 .15108 0 0-1.26683-.15108-2.5242-.51805-3.08846-1.29515"/>
<path transform="matrix(1,0,0,-1,-40.704,42.439004)" stroke-width=".3985" stroke-linecap="butt" stroke-miterlimit="10" stroke-linejoin="miter" fill="none" stroke="#006eb8" d="M153.76071-89.98038 141.73404-77.95372"/>
<path transform="matrix(-.7071,-.7071,-.7071,.7071,104.78053,124.1432)" stroke-width=".3985" stroke-linecap="round" stroke-linejoin="round" fill="none" stroke="#006eb8" d="M-3.08846 1.29515C-2.5242 .51805-1.26683 .15108 0 0-1.26683-.15108-2.5242-.51805-3.08846-1.29515"/>
<path transform="matrix(1,0,0,-1,-40.704,42.439004)" stroke-width=".3985" stroke-linecap="butt" stroke-miterlimit="10" stroke-linejoin="miter" fill="none" stroke="#02879e" d="M141.73404-77.95372C141.49785-78.74031 140.9463-79.37105 140.3168-79.37105 139.6873-79.37105 139.13576-78.74031 138.89955-77.95372 138.66336-77.16711 138.74254-76.53639 138.89965-76.53639 139.05677-76.53639 139.13591-77.16711 138.89972-77.95372 138.66318-78.74031 138.11164-79.37105 137.48213-79.37105 136.85265-79.37105 136.30109-78.74031 136.0649-77.95372 135.82869-77.16711 135.90787-76.53639 136.06499-76.53639 136.22209-76.53639 136.30126-77.16711 136.06507-77.95372 135.8285-78.74031 135.27698-79.37105 134.64748-79.37105 134.01798-79.37105 133.46642-78.74031 133.23023-77.95372 132.99404-77.16711 133.0732-76.53639 133.23032-76.53639 133.38742-76.53639 133.46659-77.16711 133.2304-77.95372 132.99385-78.74031 132.4423-79.37105 131.8128-79.37105 131.1833-79.37105 130.63175-78.74031 130.39556-77.95372 130.15937-77.16711 130.23854-76.53639 130.39565-76.53639 130.55277-76.53639 130.63191-77.16711 130.39572-77.95372 130.15918-78.74031 129.60764-79.37105 128.97814-79.37105 128.34864-79.37105 127.79707-78.74031 127.56088-77.95372 127.32469-77.16711 127.40387-76.53639 127.56097-76.53639 127.7181-76.53639 127.79724-77.16711 127.56105-77.95372 127.32451-78.74031 126.77296-79.37105 126.14346-79.37105 125.51398-79.37105 124.96242-78.74031 124.72623-77.95372 124.49002-77.16711 124.5692-76.53639 124.72632-76.53639 124.88342-76.53639 124.96259-77.16711 124.7264-77.95372 124.48984-78.74031 123.93831-79.37105 123.3088-79.37105 122.6793-79.37105 122.12775-78.74031 121.89156-77.95372 121.65536-77.16711 121.73453-76.53639 121.89165-76.53639 122.04875-76.53639 122.12791-77.16711 121.89172-77.95372 121.65518-78.74031 121.10364-79.37105 120.47414-79.37105 119.84464-79.37105 119.29308-78.74031 119.05688-77.95372 118.8207-77.16711 118.89987-76.53639 119.05698-76.53639 119.2141-76.53639 119.29324-77.16711 119.05705-77.95372 118.82051-78.74031 118.26897-79.37105 117.63947-79.37105 117.00996-79.37105 116.4584-78.74031 116.22221-77.95372 115.98602-77.16711 116.0652-76.53639 116.2223-76.53639 116.37943-76.53639 116.45857-77.16711 116.22238-77.95372 115.98584-78.74031 115.4343-79.37105 114.8048-79.37105 114.17531-79.37105 113.62375-78.74031 113.38756-77.95372H113.38724"/>
<text fill="#02879e" xml:space="preserve" transform="matrix(1 0 -0 1 0 136.688)" font-size="3.98506" font-family="LMSans8"><tspan y="-10.009" x="82.047 84.16306 85.17527 87.36307 89.47913">gluon</tspan></text>
<text fill="#02879e" xml:space="preserve" transform="matrix(1 0 -0 1 0 136.688)" font-size="3.98506" font-family="LMSans8"><tspan y="-20.591" x="74.381 76.49706 77.94364 79.82459 81.70554 83.89334 85.304058 87.33643 89.52423 91.0545 92.0667 94.2545 95.26671 97.454509">green-antiblue</tspan></text>
</svg>
